HIERARCHY
ROOT root
{
	OFFSET 0.000000 0.000000 0.000000
	CHANNELS 6 Xposition Yposition Zposition Zrotation Yrotation Xrotation
	JOINT lhip
	{
		OFFSET 0.058581 -0.082280 -0.017664
		CHANNELS 3 Zrotation Yrotation Xrotation
		JOINT lknee
		{
			OFFSET 0.043451 -0.386469 0.008037
			CHANNELS 3 Zrotation Yrotation Xrotation
			JOINT lankle
			{
				OFFSET -0.014790 -0.426874 -0.037428
				CHANNELS 3 Zrotation Yrotation Xrotation
				JOINT ltoe
				{
					OFFSET 0.041054 -0.060286 0.122042
					CHANNELS 3 Zrotation Yrotation Xrotation
					End Site
					{
						OFFSET 0.000000 0.000000 0.000000
					}
				}
			}
		}
	}
	JOINT rhip
	{
		OFFSET -0.060310 -0.090513 -0.013543
		CHANNELS 3 Zrotation Yrotation Xrotation
		JOINT rknee
		{
			OFFSET -0.043257 -0.383688 -0.004843
			CHANNELS 3 Zrotation Yrotation Xrotation
			JOINT rankle
			{
				OFFSET 0.019056 -0.420046 -0.034562
				CHANNELS 3 Zrotation Yrotation Xrotation
				JOINT rtoe
				{
					OFFSET -0.034840 -0.062106 0.130323
					CHANNELS 3 Zrotation Yrotation Xrotation
					End Site
					{
						OFFSET 0.000000 0.000000 0.000000
					}
				}
			}
		}
	}
	JOINT lowerback
	{
		OFFSET 0.004439 0.124404 -0.038385
		CHANNELS 3 Zrotation Yrotation Xrotation
		JOINT upperback
		{
			OFFSET 0.004488 0.137956 0.026820
			CHANNELS 3 Zrotation Yrotation Xrotation
			JOINT chest
			{
				OFFSET -0.002265 0.056032 0.002855
				CHANNELS 3 Zrotation Yrotation Xrotation
				JOINT lowerneck
				{
					OFFSET -0.013390 0.211636 -0.033468
					CHANNELS 3 Zrotation Yrotation Xrotation
					JOINT upperneck
					{
						OFFSET 0.010113 0.088937 0.050410
						CHANNELS 3 Zrotation Yrotation Xrotation
						End Site
						{
							OFFSET 0.000000 0.000000 0.000000
						}
					}
				}
				JOINT lclavicle
				{
					OFFSET 0.071702 0.114000 -0.018898
					CHANNELS 3 Zrotation Yrotation Xrotation
					JOINT lshoulder
					{
						OFFSET 0.122921 0.045205 -0.019046
						CHANNELS 3 Zrotation Yrotation Xrotation
						JOINT lelbow
						{
							OFFSET 0.255332 -0.015649 -0.022946
							CHANNELS 3 Zrotation Yrotation Xrotation
							JOINT lwrist
							{
								OFFSET 0.265709 0.012698 -0.007375
								CHANNELS 3 Zrotation Yrotation Xrotation
								End Site
								{
									OFFSET 0.000000 0.000000 0.000000
								}
							}
						}
					}
				}
				JOINT rclavicle
				{
					OFFSET -0.082954 0.112472 -0.023707
					CHANNELS 3 Zrotation Yrotation Xrotation
					JOINT rshoulder
					{
						OFFSET -0.113228 0.046853 -0.008472
						CHANNELS 3 Zrotation Yrotation Xrotation
						JOINT relbow
						{
							OFFSET -0.260127 -0.014369 -0.031269
							CHANNELS 3 Zrotation Yrotation Xrotation
							JOINT rwrist
							{
								OFFSET -0.269108 0.006794 -0.006027
								CHANNELS 3 Zrotation Yrotation Xrotation
								End Site
								{
									OFFSET 0.000000 0.000000 0.000000
								}
							}
						}
					}
				}
			}
		}
	}
}
MOTION
Frames: 5
Frame Time: 0.033333
-0.004712 0.214325 0.981159 64.994081 -0.233931 85.288009 -2.801850 1.109931 4.894212 -2.068105 -6.382400 6.247938 2.940282 11.861996 -16.398191 0.000000 -0.000000 0.000000 4.010518 0.127091 0.424339 -0.092353 -0.325107 15.290773 0.839548 -8.236035 -20.587588 0.000000 -0.000000 0.000000 0.148322 -0.684895 9.775714 1.110099 -0.496233 -2.897363 0.453015 -1.424198 3.814814 2.653899 3.215988 -15.757759 -4.222778 -4.710215 8.155946 -29.984353 9.863848 -1.559496 -58.118553 -2.744427 7.784583 14.656264 -34.159493 0.857551 1.496014 -4.412580 -8.861095 30.294016 -1.651011 -1.942085 56.161087 3.048175 15.891134 -16.255426 26.651268 -5.427931 1.869819 3.585783 -4.192009 
-0.004373 0.213925 0.981071 65.273745 -0.203352 85.321104 -2.459672 1.620826 4.853527 -2.359924 -6.992690 6.328758 2.152919 11.575379 -17.031235 0.000000 -0.000000 0.000000 4.041290 0.071348 0.366153 -0.076105 -0.438689 15.433452 1.004186 -8.320043 -20.648975 0.000000 -0.000000 0.000000 0.136218 -0.934016 9.635627 1.037023 -0.469886 -2.819976 0.458395 -1.395174 3.858214 2.732266 3.344233 -15.891241 -4.283076 -4.662478 8.277305 -29.863584 9.690476 -1.428922 -58.255288 -2.862172 7.818844 14.734715 -34.138699 0.995567 1.730442 -4.525549 -8.997673 30.199503 -1.513503 -1.903956 56.346166 3.069758 15.892235 -16.393868 26.609299 -5.402860 1.741161 3.377005 -4.461839 
-0.003545 0.213108 0.981081 65.297736 -0.283255 85.135961 -2.390190 1.497851 5.288622 -2.520942 -6.805221 6.046100 1.933106 11.509406 -17.288270 0.000000 -0.000000 0.000000 3.959274 0.041455 0.656007 -0.031220 -0.433812 15.378379 1.051308 -8.419969 -20.720935 0.000000 -0.000000 0.000000 -0.015709 -0.852065 9.675699 1.013866 -0.516600 -2.676458 0.444684 -1.404032 3.893001 2.802484 3.432231 -16.019750 -4.270436 -4.672383 8.384848 -29.727499 9.661362 -1.366683 -58.329476 -3.000491 7.861481 14.660359 -34.235863 1.123864 1.715781 -4.642738 -9.231986 30.252395 -1.413304 -1.945272 56.396420 3.154663 15.932606 -16.466973 26.465624 -5.394492 1.742835 3.375653 -4.556560 
-0.002762 0.212531 0.980791 65.296102 -0.422219 85.196173 -2.660614 1.416916 5.327566 -2.370063 -6.881165 5.970324 2.002131 11.506624 -17.226588 0.000000 -0.000000 0.000000 3.881364 0.122811 0.542421 -0.093002 -0.424665 15.558860 1.043257 -8.627119 -20.722927 0.000000 -0.000000 0.000000 -0.158421 -0.866319 9.502569 0.917463 -0.517150 -2.675998 0.358481 -1.462279 4.005595 2.904664 3.562576 -16.042828 -4.268929 -4.533119 8.511427 -29.619549 9.684513 -1.410870 -58.360259 -3.008107 7.966501 14.696050 -34.370407 1.106163 1.795776 -4.614925 -9.242062 30.372228 -1.411662 -1.989990 56.386464 3.219812 16.019482 -16.480243 26.600741 -5.451447 1.694425 3.301354 -4.520763 
-0.001765 0.211902 0.980667 65.427359 -0.400249 85.253890 -2.734660 1.260398 5.293697 -2.285762 -6.817610 6.039045 2.068744 11.566791 -17.139072 0.000000 -0.000000 0.000000 3.952584 0.130394 0.581638 -0.089022 -0.428666 15.463082 0.910271 -8.917313 -20.776897 0.000000 -0.000000 0.000000 -0.153323 -0.879270 9.391004 0.922544 -0.562005 -2.818132 0.321816 -1.536138 4.028842 2.963234 3.508368 -15.928003 -4.345866 -4.493811 8.663548 -29.601714 9.867013 -1.464926 -58.352263 -2.995605 8.005735 14.517525 -34.419776 1.344399 1.754170 -4.550720 -9.219893 30.347085 -1.623712 -2.059682 56.430971 3.177316 16.059896 -16.467150 26.564635 -5.389964 1.619569 3.421977 -4.487855 
